{
  "accessors": [
    {
      "bufferView": 1,
      "componentType": 5126,
      "count": 2884,
      "max": [
        8.0,
        -4.0,
        -9.0
      ],
      "min": [
        -8.0,
        -8.0,
        -17.0
      ],
      "type": "VEC3"
    },
    {
      "bufferView": 1,
      "byteOffset": 34608,
      "componentType": 5126,
      "count": 2884,
      "max": [
        0.9976899027824402,
        1.0,
        1.0
      ],
      "min": [
        -0.9976899027824402,
        -1.0,
        -0.9988223910331726
      ],
      "type": "VEC3"
    },
    {
      "bufferView": 0,
      "componentType": 5125,
      "count": 14082,
      "type": "SCALAR"
    },
    {
      "bufferView": 1,
      "byteOffset": 69216,
      "componentType": 5126,
      "count": 1740,
      "max": [
        9.994000434875488,
        -9.0,
        0.9950000047683716
      ],
      "min": [
        -9.994000434875488,
        -55.877899169921875,
        -26.976999282836914
      ],
      "type": "VEC3"
    },
    {
      "bufferView": 1,
      "byteOffset": 90096,
      "componentType": 5126,
      "count": 1740,
      "max": [
        1.0,
        1.0,
        0.9997608661651611
      ],
      "min": [
        -1.0,
        -0.98847496509552,
        -0.9998618364334106
      ],
      "type": "VEC3"
    },
    {
      "bufferView": 0,
      "byteOffset": 56328,
      "componentType": 5125,
      "count": 7227,
      "type": "SCALAR"
    },
    {
      "bufferView": 1,
      "byteOffset": 110976,
      "componentType": 5126,
      "count": 220,
      "max": [
        11.0,
        -42.944000244140625,
        -10.639599800109863
      ],
      "min": [
        -11.0,
        -61.880001068115234,
        -26.78890037536621
      ],
      "type": "VEC3"
    },
    {
      "bufferView": 1,
      "byteOffset": 113616,
      "componentType": 5126,
      "count": 220,
      "max": [
        1.0,
        0.9248883128166199,
        0.9238787889480591
      ],
      "min": [
        -1.0,
        -0.9239802956581116,
        -0.9239029884338379
      ],
      "type": "VEC3"
    },
    {
      "bufferView": 0,
      "byteOffset": 85236,
      "componentType": 5125,
      "count": 546,
      "type": "SCALAR"
    },
    {
      "bufferView": 1,
      "byteOffset": 116256,
      "componentType": 5126,
      "count": 96,
      "max": [
        10.5,
        -47.09619903564453,
        -1.093999981880188
      ],
      "min": [
        -10.5,
        -70.4520034790039,
        -29.179000854492188
      ],
      "type": "VEC3"
    },
    {
      "bufferView": 1,
      "byteOffset": 117408,
      "componentType": 5126,
      "count": 96,
      "max": [
        1.0,
        0.9356290102005005,
        0.9238902926445007
      ],
      "min": [
        -1.0,
        -0.9238723516464233,
        -0.951820969581604
      ],
      "type": "VEC3"
    },
    {
      "bufferView": 0,
      "byteOffset": 87420,
      "componentType": 5125,
      "count": 228,
      "type": "SCALAR"
    },
    {
      "bufferView": 1,
      "byteOffset": 118560,
      "componentType": 5126,
      "count": 5497,
      "max": [
        23.87700080871582,
        -5.51609992980957,
        -6.0278000831604
      ],
      "min": [
        -23.507999420166016,
        -53.63479995727539,
        -26.68899917602539
      ],
      "type": "VEC3"
    },
    {
      "bufferView": 1,
      "byteOffset": 184524,
      "componentType": 5126,
      "count": 5497,
      "max": [
        1.0,
        0.9967026710510254,
        0.9999684691429138
      ],
      "min": [
        -1.0,
        -0.9959065318107605,
        -1.0
      ],
      "type": "VEC3"
    },
    {
      "bufferView": 0,
      "byteOffset": 88332,
      "componentType": 5125,
      "count": 27339,
      "type": "SCALAR"
    }
  ],
  "asset": {
    "extras": {
      "author": "qtsamo (https://sketchfab.com/qtsamo)",
      "license": "CC-BY-4.0 (http://creativecommons.org/licenses/by/4.0/)",
      "source": "https://sketchfab.com/3d-models/create-your-superhero-suit-d0ae1fc4d0684d80826530d9b0719cbc",
      "title": "Create Your Superhero Suit"
    },
    "generator": "Sketchfab-11.87.0",
    "version": "2.0"
  },
  "bufferViews": [
    {
      "buffer": 0,
      "byteLength": 197688,
      "name": "floatBufferViews",
      "target": 34963
    },
    {
      "buffer": 0,
      "byteLength": 250488,
      "byteOffset": 197688,
      "byteStride": 12,
      "name": "floatBufferViews",
      "target": 34962
    }
  ],
  "buffers": [
    {
      "byteLength": 448176,
      "uri": "scene.bin"
    }
  ],
  "materials": [
    {
      "doubleSided": true,
      "name": "color_16089887",
      "pbrMetallicRoughness": {
        "baseColorFactor": [
          0.960784,
          0.513726,
          0.121569,
          1.0
        ],
        "metallicFactor": 0.0
      }
    },
    {
      "doubleSided": true,
      "name": "color_16448250",
      "pbrMetallicRoughness": {
        "baseColorFactor": [
          0.980392,
          0.980392,
          0.980392,
          1.0
        ],
        "metallicFactor": 0.0
      }
    },
    {
      "doubleSided": true,
      "name": "color_16768282",
      "pbrMetallicRoughness": {
        "baseColorFactor": [
          1.0,
          0.866667,
          0.101961,
          1.0
        ],
        "metallicFactor": 0.0
      }
    },
    {
      "doubleSided": true,
      "name": "color_6306067",
      "pbrMetallicRoughness": {
        "baseColorFactor": [
          0.376471,
          0.223529,
          0.0745098,
          1.0
        ],
        "metallicFactor": 0.0
      }
    },
    {
      "doubleSided": true,
      "name": "color_6383466",
      "pbrMetallicRoughness": {
        "baseColorFactor": [
          0.380392,
          0.403922,
          0.415686,
          1.0
        ],
        "metallicFactor": 0.0
      }
    }
  ],
  "meshes": [
    {
      "name": "Object_0",
      "primitives": [
        {
          "attributes": {
            "NORMAL": 1,
            "POSITION": 0
          },
          "indices": 2,
          "material": 0,
          "mode": 4
        }
      ]
    },
    {
      "name": "Object_1",
      "primitives": [
        {
          "attributes": {
            "NORMAL": 4,
            "POSITION": 3
          },
          "indices": 5,
          "material": 1,
          "mode": 4
        }
      ]
    },
    {
      "name": "Object_2",
      "primitives": [
        {
          "attributes": {
            "NORMAL": 7,
            "POSITION": 6
          },
          "indices": 8,
          "material": 2,
          "mode": 4
        }
      ]
    },
    {
      "name": "Object_3",
      "primitives": [
        {
          "attributes": {
            "NORMAL": 10,
            "POSITION": 9
          },
          "indices": 11,
          "material": 3,
          "mode": 4
        }
      ]
    },
    {
      "name": "Object_4",
      "primitives": [
        {
          "attributes": {
            "NORMAL": 13,
            "POSITION": 12
          },
          "indices": 14,
          "material": 4,
          "mode": 4
        }
      ]
    }
  ],
  "nodes": [
    {
      "children": [
        1
      ],
      "matrix": [
        1.0,
        0.0,
        0.0,
        0.0,
        0.0,
        -1.0,
        -4.440892098500626e-16,
        0.0,
        0.0,
        4.440892098500626e-16,
        -1.0,
        0.0,
        0.0,
        -51.31795883178712,
        23.134017944335927,
        1.0
      ],
      "name": "Sketchfab_model"
    },
    {
      "children": [
        2,
        3,
        4,
        5,
        6
      ],
      "name": "tinker.obj.cleaner.materialmerger.gles"
    },
    {
      "mesh": 0,
      "name": "Object_2"
    },
    {
      "mesh": 1,
      "name": "Object_3"
    },
    {
      "mesh": 2,
      "name": "Object_4"
    },
    {
      "mesh": 3,
      "name": "Object_5"
    },
    {
      "mesh": 4,
      "name": "Object_6"
    }
  ],
  "scene": 0,
  "scenes": [
    {
      "name": "Sketchfab_Scene",
      "nodes": [
        0
      ]
    }
  ]
}
